<?xml version="1.0" encoding="iso-8859-1"?>
<!-- Uploaded to: SVG Repo, www.svgrepo.com, Generator: SVG Repo Mixer Tools -->
<svg fill="#fff" height="800px" width="800px" version="1.1" id="Layer_1" xmlns="http://www.w3.org/2000/svg" xmlns:xlink="http://www.w3.org/1999/xlink" 
	 viewBox="0 0 512 512" xml:space="preserve">
<g>
	<g>
		<path d="M437.019,74.981C388.668,26.628,324.38,0,256,0S123.332,26.628,74.981,74.981C26.628,123.332,0,187.62,0,256
			s26.628,132.668,74.981,181.019C123.332,485.372,187.62,512,256,512s132.668-26.628,181.019-74.981
			C485.372,388.668,512,324.38,512,256S485.372,123.332,437.019,74.981z M355.203,37.854
			c52.537,23.987,94.956,66.406,118.943,118.943l-15.109,6.258c-22.314-48.552-61.54-87.778-110.092-110.092L355.203,37.854z
			 M462.979,256c0,86.06-52.801,160.01-127.704,191.184c-0.024,0.01-0.048,0.016-0.072,0.026c-0.021,0.009-0.039,0.02-0.059,0.028
			c-24.396,10.133-51.126,15.74-79.144,15.74c-114.128,0-206.979-92.851-206.979-206.979c0-86.081,52.828-160.047,127.761-191.208
			c24.433-10.156,51.18-15.771,79.217-15.771c28.04,0,54.789,5.616,79.2,15.764c50.534,21.012,91.004,61.48,112.013,112.007
			C457.363,201.209,462.979,227.96,462.979,256z M256,16.34c29.584,0,57.926,5.402,84.111,15.249l-6.255,15.102
			c-24.255-9.05-50.485-14.01-77.856-14.01c-27.37,0-53.601,4.96-77.856,14.01l-6.255-15.103
			C198.074,21.743,226.416,16.34,256,16.34z M156.797,37.854l6.258,15.109c-48.551,22.316-87.777,61.541-110.091,110.093
			l-15.109-6.258C61.841,104.261,104.261,61.841,156.797,37.854z M16.34,256c0-29.584,5.402-57.926,15.249-84.111l15.102,6.255
			c-9.05,24.255-14.01,50.485-14.01,77.856c0,27.37,4.96,53.601,14.01,77.855l-15.102,6.255C21.743,313.926,16.34,285.584,16.34,256
			z M156.797,474.146c-52.537-23.987-94.956-66.406-118.943-118.943l15.109-6.258c22.315,48.552,61.54,87.778,110.092,110.092
			L156.797,474.146z M256,495.66c-29.584,0-57.926-5.402-84.111-15.249l6.256-15.102c24.254,9.05,50.484,14.01,77.854,14.01
			c27.37,0,53.601-4.96,77.856-14.01l6.255,15.103C313.926,490.257,285.584,495.66,256,495.66z M355.203,474.146l-6.258-15.109
			c48.552-22.314,87.778-61.54,110.092-110.092l15.109,6.258C450.159,407.739,407.739,450.159,355.203,474.146z M465.308,333.856
			c9.051-24.255,14.011-50.485,14.011-77.856c0-27.37-4.96-53.601-14.01-77.854l15.102-6.255
			c9.847,26.184,15.249,54.526,15.249,84.11s-5.402,57.926-15.249,84.111L465.308,333.856z"/>
	</g>
</g>
<g>
	<g>
		<path d="M427.693,318.274L277.35,256l150.346-62.276c4.169-1.727,6.148-6.507,4.422-10.675c-1.727-4.168-6.508-6.147-10.675-4.422
			l-150.346,62.276l62.276-150.346c1.727-4.169-0.253-8.948-4.422-10.675c-4.167-1.727-8.948,0.252-10.675,4.422L256,234.65
			L193.724,84.305c-1.727-4.169-6.507-6.148-10.675-4.422c-4.169,1.727-6.148,6.507-4.422,10.675l62.276,150.345L90.558,178.628
			c-4.167-1.727-8.948,0.252-10.675,4.422c-1.727,4.169,0.253,8.948,4.422,10.675L234.65,256L84.297,318.278
			c-4.169,1.727-6.148,6.507-4.422,10.675c1.303,3.146,4.345,5.046,7.551,5.046c1.042,0,2.101-0.2,3.123-0.624l150.353-62.278
			l-62.276,150.347c-1.727,4.169,0.253,8.948,4.422,10.675c1.022,0.424,2.082,0.624,3.123,0.624c3.206,0,6.249-1.9,7.551-5.046
			L256,277.35l62.278,150.352c1.303,3.146,4.346,5.046,7.552,5.046c1.042,0,2.101-0.2,3.123-0.624
			c4.169-1.727,6.148-6.507,4.422-10.675l-62.278-150.353l150.344,62.274c1.022,0.424,2.082,0.624,3.123,0.624
			c3.206,0,6.249-1.9,7.552-5.046C433.842,324.78,431.862,320.001,427.693,318.274z"/>
	</g>
</g>
<g>
	<g>
		<path d="M256,84.426c-16.519,0-29.957,13.438-29.957,29.957S239.481,144.34,256,144.34s29.957-13.438,29.957-29.957
			S272.519,84.426,256,84.426z M256,128c-7.509,0-13.617-6.108-13.617-13.617s6.108-13.617,13.617-13.617
			c7.509,0,13.617,6.108,13.617,13.617S263.509,128,256,128z"/>
	</g>
</g>
<g>
	<g>
		<path d="M177.044,134.679c-5.658-5.658-13.181-8.775-21.183-8.775s-15.524,3.116-21.183,8.775
			c-5.658,5.658-8.775,13.181-8.775,21.183s3.116,15.524,8.775,21.183c5.658,5.659,13.181,8.775,21.183,8.775
			c8.001,0,15.525-3.116,21.183-8.775c5.658-5.658,8.775-13.181,8.775-21.183S182.703,140.337,177.044,134.679z M165.49,165.49
			c-2.572,2.572-5.992,3.988-9.629,3.988s-7.057-1.416-9.629-3.988c-5.308-5.31-5.308-13.948,0-19.258
			c2.572-2.572,5.991-3.988,9.629-3.988s7.057,1.416,9.629,3.988C170.8,151.542,170.8,160.181,165.49,165.49z"/>
	</g>
</g>
<g>
	<g>
		<path d="M114.383,226.043c-16.519,0-29.957,13.438-29.957,29.957s13.438,29.957,29.957,29.957S144.34,272.519,144.34,256
			S130.902,226.043,114.383,226.043z M114.383,269.617c-7.509,0-13.617-6.108-13.617-13.617c0-7.509,6.108-13.617,13.617-13.617
			S128,248.491,128,256C128,263.509,121.892,269.617,114.383,269.617z"/>
	</g>
</g>
<g>
	<g>
		<path d="M177.044,334.956c-5.658-5.658-13.181-8.775-21.183-8.775s-15.524,3.116-21.183,8.775
			c-5.658,5.658-8.775,13.181-8.775,21.183c0,8.001,3.116,15.525,8.775,21.183c5.658,5.658,13.181,8.775,21.183,8.775
			s15.524-3.116,21.183-8.775c5.658-5.658,8.775-13.181,8.775-21.183C185.819,348.137,182.703,340.613,177.044,334.956z
			 M165.49,365.767c-2.572,2.572-5.991,3.988-9.629,3.988s-7.057-1.416-9.629-3.988c-5.31-5.31-5.31-13.948,0-19.258
			c2.572-2.572,5.991-3.988,9.629-3.988s7.057,1.416,9.629,3.988C170.8,351.819,170.8,360.458,165.49,365.767z"/>
	</g>
</g>
<g>
	<g>
		<path d="M256,367.66c-16.519,0-29.957,13.438-29.957,29.957c0,16.519,13.438,29.957,29.957,29.957s29.957-13.438,29.957-29.957
			C285.957,381.098,272.519,367.66,256,367.66z M256,411.234c-7.509,0-13.617-6.108-13.617-13.617S248.491,384,256,384
			c7.509,0,13.617,6.108,13.617,13.617S263.509,411.234,256,411.234z"/>
	</g>
</g>
<g>
	<g>
		<path d="M377.321,334.956c-5.658-5.659-13.181-8.775-21.183-8.775c-8.001,0-15.524,3.116-21.183,8.775
			c-5.658,5.658-8.775,13.181-8.775,21.183c0,8.001,3.116,15.525,8.775,21.183c5.658,5.658,13.181,8.775,21.183,8.775
			c8.001,0,15.525-3.116,21.183-8.775c5.658-5.658,8.775-13.181,8.775-21.183C386.096,348.137,382.98,340.614,377.321,334.956z
			 M365.767,365.767c-2.572,2.572-5.991,3.988-9.629,3.988c-3.637,0-7.057-1.416-9.629-3.988c-5.31-5.31-5.31-13.948,0-19.258
			c2.572-2.572,5.992-3.988,9.629-3.988c3.637,0,7.057,1.416,9.629,3.988C371.076,351.819,371.076,360.458,365.767,365.767z"/>
	</g>
</g>
<g>
	<g>
		<path d="M397.617,226.043c-16.519,0-29.957,13.438-29.957,29.957s13.438,29.957,29.957,29.957
			c16.519,0,29.957-13.438,29.957-29.957S414.136,226.043,397.617,226.043z M397.617,269.617c-7.509,0-13.617-6.108-13.617-13.617
			c0-7.509,6.108-13.617,13.617-13.617s13.617,6.108,13.617,13.617C411.234,263.509,405.126,269.617,397.617,269.617z"/>
	</g>
</g>
<g>
	<g>
		<path d="M377.321,134.679c-5.658-5.658-13.181-8.775-21.183-8.775c-8.001,0-15.524,3.116-21.183,8.775
			c-5.658,5.658-8.775,13.181-8.775,21.183s3.116,15.526,8.775,21.183c5.658,5.658,13.181,8.775,21.183,8.775
			c8.001,0,15.525-3.116,21.183-8.775c5.658-5.658,8.775-13.181,8.775-21.183S382.98,140.337,377.321,134.679z M365.767,165.49
			c-2.572,2.572-5.992,3.988-9.629,3.988c-3.637,0-7.057-1.416-9.629-3.988c-5.31-5.31-5.31-13.948,0-19.258
			c2.572-2.572,5.992-3.988,9.629-3.988c3.637,0,7.057,1.416,9.629,3.988C371.077,151.542,371.077,160.181,365.767,165.49z"/>
	</g>
</g>
<g>
	<g>
		<circle cx="294.52" cy="75.863" r="8.17"/>
	</g>
</g>
<g>
	<g>
		<circle cx="256" cy="168.851" r="8.17"/>
	</g>
</g>
<g>
	<g>
		<circle cx="155.866" cy="101.398" r="8.17"/>
	</g>
</g>
<g>
	<g>
		<circle cx="101.398" cy="155.866" r="8.17"/>
	</g>
</g>
<g>
	<g>
		<circle cx="75.863" cy="217.491" r="8.17"/>
	</g>
</g>
<g>
	<g>
		<circle cx="168.851" cy="256" r="8.17"/>
	</g>
</g>
<g>
	<g>
		<circle cx="101.398" cy="356.134" r="8.17"/>
	</g>
</g>
<g>
	<g>
		<circle cx="155.866" cy="410.602" r="8.17"/>
	</g>
</g>
<g>
	<g>
		<circle cx="217.491" cy="436.137" r="8.17"/>
	</g>
</g>
<g>
	<g>
		<circle cx="256" cy="343.149" r="8.17"/>
	</g>
</g>
<g>
	<g>
		<circle cx="356.134" cy="410.602" r="8.17"/>
	</g>
</g>
<g>
	<g>
		<circle cx="410.602" cy="356.134" r="8.17"/>
	</g>
</g>
<g>
	<g>
		<circle cx="436.137" cy="294.52" r="8.17"/>
	</g>
</g>
<g>
	<g>
		<circle cx="343.149" cy="256" r="8.17"/>
	</g>
</g>
<g>
	<g>
		<circle cx="410.602" cy="155.866" r="8.17"/>
	</g>
</g>
<g>
	<g>
		<circle cx="356.134" cy="101.398" r="8.17"/>
	</g>
</g>
</svg>